<?xml version="1.0" standalone="no"?>
<!DOCTYPE svg PUBLIC "-//W3C//DTD SVG 20010904//EN"
 "http://www.w3.org/TR/2001/REC-SVG-20010904/DTD/svg10.dtd">
<svg version="1.0" xmlns="http://www.w3.org/2000/svg"
 width="540.000000pt" height="540.000000pt" viewBox="0 0 540.000000 540.000000"
 preserveAspectRatio="xMidYMid meet">
<metadata>
Created by potrace 1.14, written by Peter Selinger 2001-2017
</metadata>
<g transform="translate(0.000000,540.000000) scale(0.100000,-0.100000)"
fill="#000000" stroke="none">
<path d="M3445 4927 c-33 -20 -145 -138 -145 -153 0 -8 -4 -14 -10 -14 -5 0
-10 -7 -10 -15 0 -8 -4 -15 -10 -15 -5 0 -10 -9 -10 -20 0 -11 -4 -20 -10 -20
-5 0 -10 -9 -10 -19 0 -11 -4 -23 -10 -26 -5 -3 -10 -14 -10 -25 0 -10 -6 -20
-12 -22 -7 -2 -74 0 -148 5 -155 10 -587 2 -604 -12 -20 -16 -225 -37 -235
-24 -9 12 -131 73 -147 73 -8 0 -14 5 -14 10 0 6 -11 10 -24 10 -14 0 -28 5
-31 10 -3 6 -19 10 -36 10 -16 0 -29 5 -29 10 0 6 -18 10 -40 10 -22 0 -40 5
-40 10 0 6 -22 10 -50 10 -27 0 -50 5 -50 10 0 6 -36 10 -89 10 -50 0 -93 -4
-96 -10 -3 -5 -14 -10 -24 -10 -23 0 -111 -83 -111 -104 0 -9 -5 -16 -11 -16
-7 0 -9 -37 -6 -112 5 -123 14 -185 28 -194 5 -3 9 -16 9 -29 0 -13 5 -27 10
-30 6 -3 10 -15 10 -26 0 -10 4 -27 9 -37 5 -9 14 -30 21 -47 7 -16 16 -38 21
-47 12 -24 11 -58 -1 -58 -5 0 -10 -9 -10 -20 0 -11 -4 -20 -8 -20 -5 0 -14
-16 -22 -35 -8 -19 -17 -35 -22 -35 -4 0 -8 -6 -8 -14 0 -8 -3 -16 -7 -18 -10
-4 -42 -57 -50 -80 -3 -10 -9 -18 -14 -18 -5 0 -9 -9 -9 -20 0 -11 -4 -20 -10
-20 -5 0 -10 -9 -10 -20 0 -11 -4 -20 -10 -20 -5 0 -10 -9 -10 -20 0 -11 -4
-20 -10 -20 -5 0 -10 -9 -10 -19 0 -11 -4 -21 -8 -23 -11 -4 -106 -200 -124
-253 -7 -22 -16 -42 -19 -45 -3 -3 -9 -18 -12 -35 -13 -66 -19 -91 -27 -110
-5 -11 -12 -40 -16 -65 -11 -75 -8 -351 5 -410 6 -30 14 -70 18 -87 3 -18 9
-33 14 -33 5 0 9 -13 9 -30 0 -16 5 -30 10 -30 6 0 10 -6 10 -14 0 -13 13 -42
61 -139 12 -23 27 -52 33 -64 6 -13 14 -23 19 -23 4 0 7 -6 7 -13 0 -7 8 -22
18 -33 10 -10 29 -35 42 -54 13 -19 41 -52 62 -72 43 -41 47 -57 18 -78 -11
-8 -20 -20 -20 -27 0 -7 -4 -13 -10 -13 -5 0 -10 -7 -10 -15 0 -8 -4 -15 -10
-15 -5 0 -10 -7 -10 -15 0 -8 -4 -15 -8 -15 -5 0 -14 -16 -22 -35 -8 -19 -17
-35 -22 -35 -4 0 -8 -9 -8 -20 0 -11 -4 -20 -10 -20 -5 0 -10 -7 -10 -15 0 -8
-4 -23 -9 -33 -5 -9 -14 -30 -21 -47 -7 -16 -16 -38 -21 -47 -5 -10 -9 -27 -9
-37 0 -11 -4 -22 -9 -25 -5 -3 -11 -23 -14 -43 -3 -21 -11 -58 -17 -83 -6 -25
-14 -63 -16 -85 -3 -22 -9 -49 -14 -60 -5 -11 -11 -45 -14 -75 -3 -30 -11
-111 -18 -180 -14 -142 -17 -512 -5 -612 l9 -68 38 0 39 0 5 338 c5 367 16
499 56 677 6 28 14 67 17 88 3 20 9 40 14 43 5 3 9 16 9 29 0 13 4 26 8 29 4
3 14 28 22 55 7 28 17 51 22 51 4 0 8 6 8 14 0 16 50 114 80 156 11 15 20 31
20 35 0 9 60 65 69 65 3 0 18 -10 32 -23 29 -26 77 -56 102 -64 9 -3 17 -9 17
-14 0 -5 9 -9 20 -9 11 0 20 -3 20 -7 0 -9 49 -33 67 -33 7 0 13 -4 13 -8 0
-5 23 -15 50 -22 28 -7 50 -17 50 -22 0 -4 14 -8 30 -8 17 0 39 -5 50 -10 11
-6 29 -15 40 -20 11 -5 33 -10 50 -10 16 0 30 -4 30 -10 0 -6 26 -10 59 -10
64 0 76 10 65 56 -4 17 -13 24 -29 24 -13 0 -27 5 -30 10 -3 6 -19 10 -35 10
-16 0 -32 5 -35 10 -3 6 -22 10 -41 10 -19 0 -34 5 -34 10 0 6 -7 10 -15 10
-9 0 -35 9 -57 20 -23 11 -48 20 -55 20 -7 0 -13 5 -13 10 0 6 -9 10 -19 10
-10 0 -45 14 -77 31 -33 18 -69 37 -81 43 -13 6 -23 14 -23 19 0 4 -8 7 -18 7
-10 0 -24 9 -32 20 -8 11 -20 20 -28 20 -18 0 -242 226 -242 245 0 8 -3 15 -7
15 -5 0 -13 10 -19 23 -6 12 -26 51 -44 87 -38 76 -45 91 -61 145 -6 22 -15
49 -20 60 -19 50 -23 92 -22 265 1 191 8 280 24 280 5 0 9 10 9 22 0 29 42
153 71 210 5 10 9 25 9 33 0 8 5 15 10 15 6 0 10 9 10 20 0 11 5 20 10 20 6 0
10 9 10 19 0 11 3 21 8 23 10 4 52 87 52 103 0 7 3 15 8 17 4 2 22 33 41 71
19 37 38 67 42 67 5 0 9 7 9 15 0 9 9 25 20 37 11 12 20 28 20 35 0 7 5 13 10
13 6 0 10 7 10 15 0 19 5 19 40 -2 27 -16 29 -15 54 10 l27 27 -28 43 c-16 23
-35 56 -42 72 -7 17 -17 38 -22 47 -5 10 -9 25 -9 33 0 8 -4 15 -10 15 -5 0
-10 10 -10 23 0 13 -4 27 -8 32 -5 6 -14 30 -21 55 -7 25 -17 53 -22 62 -5 10
-9 30 -9 44 0 15 -5 44 -12 66 -15 51 4 132 40 171 25 26 29 27 129 27 57 0
103 -4 103 -9 0 -5 19 -11 43 -15 81 -10 117 -18 123 -27 3 -5 16 -9 30 -9 13
0 24 -4 24 -10 0 -5 9 -10 19 -10 11 0 23 -4 26 -10 3 -5 17 -10 31 -10 13 0
24 -4 24 -10 0 -5 9 -10 20 -10 11 0 20 -4 20 -10 0 -5 7 -10 16 -10 8 0 29
-13 47 -30 18 -16 38 -30 45 -30 6 0 12 -4 12 -9 0 -5 14 -14 30 -21 17 -7 30
-16 30 -21 0 -14 50 -10 66 5 16 17 19 66 4 66 -21 0 -9 18 18 25 103 26 584
47 605 26 6 -6 52 -11 108 -11 69 0 99 -4 102 -12 3 -10 9 -10 29 0 17 10 29
29 38 63 8 27 17 49 22 49 4 0 8 9 8 20 0 11 5 20 10 20 6 0 10 9 10 20 0 11
5 20 10 20 6 0 10 7 10 15 0 8 8 24 18 36 54 68 76 89 88 89 8 0 14 5 14 10 0
6 20 10 44 10 41 0 49 -5 104 -59 33 -32 63 -68 67 -80 3 -12 11 -21 16 -21 5
0 9 -7 9 -15 0 -8 5 -15 10 -15 6 0 10 -7 10 -15 0 -8 5 -15 10 -15 6 0 10 -9
10 -20 0 -11 3 -20 8 -20 6 0 17 -19 73 -133 10 -22 19 -45 19 -53 0 -8 5 -14
10 -14 6 0 10 -7 10 -15 0 -8 5 -24 10 -35 6 -11 15 -29 20 -40 6 -11 10 -29
10 -39 0 -11 5 -23 10 -26 6 -3 10 -17 10 -30 0 -13 5 -27 10 -30 6 -3 10 -19
10 -35 0 -16 5 -32 10 -35 6 -3 10 -20 10 -36 0 -31 19 -59 40 -59 15 0 72
-59 89 -93 8 -15 18 -27 23 -27 4 0 8 -9 8 -20 0 -11 5 -20 10 -20 6 0 10 -9
10 -20 0 -11 5 -20 10 -20 6 0 10 -9 10 -19 0 -11 5 -23 10 -26 6 -3 10 -17
10 -31 0 -13 5 -24 10 -24 6 0 10 -12 10 -27 0 -32 21 -93 32 -93 4 0 8 -6 8
-12 0 -18 81 -179 102 -202 10 -11 18 -24 18 -29 0 -5 12 -21 28 -35 29 -29
72 -105 72 -128 0 -8 5 -14 10 -14 6 0 10 -11 10 -24 0 -14 5 -28 10 -31 6 -3
10 -19 10 -35 0 -16 4 -31 9 -34 32 -20 32 -406 0 -440 -5 -6 -9 -20 -9 -33 0
-13 -4 -31 -9 -41 -5 -9 -24 -48 -42 -87 -19 -38 -37 -71 -41 -73 -5 -2 -8
-12 -8 -23 0 -10 -3 -19 -7 -19 -5 -1 -23 -22 -42 -48 -19 -26 -60 -69 -93
-97 -32 -27 -73 -63 -90 -78 -26 -24 -37 -27 -72 -23 -23 3 -80 8 -128 12
l-88 6 0 118 c0 69 -4 121 -10 125 -5 3 -10 15 -10 26 0 10 -3 19 -8 19 -4 0
-13 12 -19 28 -7 15 -25 35 -40 44 -33 21 -93 73 -93 82 0 3 23 6 50 6 28 0
58 4 68 9 9 5 32 16 50 23 17 7 32 16 32 20 0 5 6 8 13 8 6 0 24 11 40 24 29
25 36 63 15 84 -14 14 -45 16 -50 4 -5 -14 -96 -72 -112 -72 -8 0 -18 -5 -21
-10 -11 -17 -172 -12 -200 6 -23 15 -25 23 -25 84 0 72 6 100 22 100 12 0 58
46 58 59 0 5 5 11 12 13 8 3 12 30 13 79 0 63 -4 79 -25 109 -33 47 -38 51
-88 78 -62 31 -192 32 -251 0 -23 -12 -41 -28 -41 -36 0 -8 -9 -23 -21 -33
-18 -15 -21 -29 -20 -84 1 -64 10 -90 44 -129 9 -11 17 -23 17 -28 0 -4 6 -8
13 -8 6 0 23 -9 37 -20 14 -11 35 -20 48 -20 12 0 22 -4 22 -9 0 -6 17 -11 38
-13 32 -3 37 -6 40 -32 2 -16 -1 -33 -7 -39 -6 -6 -11 -21 -11 -33 0 -28 -47
-74 -76 -74 -12 0 -26 -4 -29 -10 -4 -6 -90 -10 -226 -10 -225 0 -249 -4 -249
-40 0 -36 24 -40 259 -40 142 0 232 4 236 10 3 6 18 10 33 10 21 0 51 -25 138
-115 l112 -115 12 -84 c7 -46 10 -91 7 -100 -5 -13 -25 -16 -119 -17 -62 0
-142 -4 -178 -9 -161 -22 -180 -36 -180 -130 0 -60 -13 -90 -40 -90 -30 0 -40
-29 -40 -120 0 -90 10 -120 40 -120 6 0 22 -7 35 -16 19 -13 25 -25 25 -55 0
-21 5 -41 10 -44 15 -9 12 -65 -3 -65 -7 0 -17 4 -23 9 -19 19 -85 51 -104 51
-11 0 -20 5 -20 10 0 6 -9 10 -20 10 -11 0 -20 5 -20 10 0 6 -13 10 -29 10
-17 0 -33 5 -36 10 -3 6 -17 10 -30 10 -13 0 -27 5 -30 10 -3 6 -17 10 -30 10
-13 0 -27 5 -30 10 -3 6 -21 10 -40 10 -19 0 -36 4 -39 9 -6 9 -27 13 -157 29
-42 5 -81 12 -86 15 -21 13 -576 7 -633 -6 -54 -13 -55 -14 -58 -51 l-3 -37
103 5 c305 14 463 17 482 7 12 -6 53 -12 91 -15 39 -3 99 -10 135 -16 36 -6
82 -13 103 -16 20 -4 40 -10 43 -15 3 -5 18 -9 34 -9 16 0 32 -4 35 -10 3 -5
17 -10 30 -10 13 0 27 -5 30 -10 3 -5 15 -10 26 -10 10 0 27 -4 37 -9 9 -5 28
-13 42 -19 14 -5 54 -23 89 -41 35 -17 72 -31 82 -31 11 0 19 -4 19 -8 0 -5
22 -18 49 -31 50 -22 171 -140 171 -166 0 -8 5 -15 11 -17 7 -2 12 -33 13 -78
1 -81 -18 -140 -44 -140 -9 0 -22 -9 -30 -20 -8 -11 -22 -20 -32 -20 -10 0
-18 -3 -18 -8 0 -4 -18 -13 -40 -20 -30 -9 -210 -12 -742 -12 -746 0 -763 -1
-774 -47 -14 -55 -37 -53 744 -53 408 0 732 4 748 9 71 23 84 23 84 0 0 -35
44 -63 115 -73 22 -3 72 -10 110 -16 78 -13 371 -4 381 11 3 5 20 9 37 9 42 1
77 31 77 65 0 24 7 57 26 123 3 10 10 9 29 -4 l26 -17 -4 -201 c-2 -111 -7
-211 -11 -223 -8 -22 -6 -23 43 -23 l51 0 0 220 0 220 23 4 c12 3 48 8 81 11
32 4 75 16 94 27 41 23 102 86 102 105 0 7 5 13 10 13 6 0 10 8 10 18 0 10 5
23 11 29 14 14 14 255 0 282 -6 11 -11 28 -11 38 0 23 -22 73 -32 73 -5 0 -8
7 -8 15 0 20 -85 105 -104 105 -8 0 -18 4 -21 10 -8 13 -135 13 -135 0 0 -5
-9 -10 -20 -10 -30 0 -25 34 8 51 58 30 72 58 72 146 -1 71 -14 103 -44 103
-9 0 -16 5 -16 10 0 6 -9 10 -20 10 -16 0 -20 7 -21 33 -5 91 -2 96 100 197
53 52 108 111 121 130 13 19 32 42 42 51 10 9 18 24 18 33 0 9 3 16 8 16 8 0
32 49 32 67 0 7 5 13 10 13 6 0 10 9 10 19 0 11 5 23 10 26 6 3 10 17 10 30 0
13 4 27 10 30 6 3 10 22 10 41 0 19 4 34 9 34 9 0 25 127 25 205 0 28 -6 86
-13 130 -6 44 -14 99 -18 123 -3 23 -9 42 -14 42 -5 0 -9 11 -9 25 0 24 -3 33
-28 82 -7 13 -12 30 -12 38 0 8 -4 15 -9 15 -5 0 -12 8 -15 18 -4 9 -22 35
-41 57 -19 22 -35 45 -35 52 0 7 -4 13 -8 13 -5 0 -15 12 -23 28 -8 15 -16 29
-19 32 -11 11 -70 134 -70 146 0 8 -4 14 -10 14 -5 0 -10 18 -10 40 0 22 -4
40 -10 40 -5 0 -10 11 -10 24 0 14 -4 27 -8 30 -4 3 -14 28 -22 55 -7 28 -17
51 -22 51 -4 0 -8 9 -8 20 0 11 -4 20 -10 20 -5 0 -10 6 -10 13 0 6 -14 28
-30 47 -16 19 -30 38 -30 43 0 4 -20 28 -45 53 -25 25 -48 59 -52 75 -3 16
-10 32 -14 35 -5 3 -9 16 -9 30 0 13 -5 34 -12 47 -23 46 -28 57 -28 70 0 7
-9 32 -20 55 -11 22 -20 48 -20 57 0 8 -4 15 -10 15 -5 0 -10 9 -10 20 0 11
-4 20 -10 20 -5 0 -10 9 -10 20 0 11 -4 20 -10 20 -5 0 -10 9 -10 20 0 11 -4
20 -10 20 -5 0 -10 7 -10 15 0 9 -9 25 -20 37 -11 12 -20 28 -20 35 0 7 -4 13
-10 13 -5 0 -10 6 -10 13 0 7 -9 23 -20 35 -11 12 -20 26 -20 31 0 17 -165
181 -183 181 -9 0 -19 5 -22 10 -9 14 -106 11 -130 -3z m152 -1891 c3 -3 3
-12 0 -21 -9 -21 -85 -21 -94 1 -3 9 0 20 8 25 13 9 76 5 86 -5z m55 -518 c36
-35 81 -77 99 -94 45 -41 69 -71 69 -89 0 -7 5 -17 10 -20 6 -4 10 -62 10
-141 l0 -134 -40 0 -40 0 0 70 c0 75 -14 160 -33 200 -7 13 -56 69 -109 123
-54 55 -98 103 -98 108 0 17 25 38 45 39 12 0 49 -27 87 -62z m40 -513 c11
-24 14 -25 110 -25 98 0 98 0 98 25 l0 25 103 -7 c127 -8 167 -23 167 -61 0
-52 13 -116 26 -129 7 -7 22 -13 34 -13 36 0 50 -24 50 -84 0 -49 -3 -56 -19
-56 -11 0 -22 -4 -25 -9 -7 -10 -58 -19 -163 -27 -40 -4 -73 -10 -73 -15 0
-13 -517 -12 -525 1 -3 6 -35 10 -70 10 -35 0 -67 5 -70 10 -3 6 -23 10 -44
10 -20 0 -49 6 -64 13 -25 11 -27 16 -27 80 0 65 1 67 26 67 43 0 54 21 54
104 0 73 1 76 23 76 13 0 27 4 33 9 11 12 71 17 227 19 116 2 118 2 129 -23z
m48 -438 c168 1 331 4 363 8 l57 7 0 -27 c0 -30 -26 -57 -77 -82 -58 -27 -163
-158 -163 -202 0 -11 -4 -23 -10 -26 -5 -3 -10 -42 -10 -86 0 -46 4 -79 10
-79 6 0 10 -7 10 -15 0 -34 62 -108 113 -134 22 -12 27 -21 27 -51 0 -20 -4
-40 -9 -45 -5 -6 -11 -28 -13 -50 -3 -39 -4 -40 -48 -48 -123 -22 -243 -28
-328 -17 -168 21 -197 26 -209 33 -19 12 -16 57 5 64 46 18 111 107 127 178
13 55 2 185 -16 185 -5 0 -9 7 -9 15 0 8 -4 15 -10 15 -5 0 -10 5 -10 10 0 27
-158 180 -185 180 -12 0 -35 69 -35 107 0 16 -4 35 -9 43 -17 26 0 32 63 25
33 -5 198 -8 366 -8z m696 -132 c28 -28 44 -53 44 -69 0 -14 5 -28 10 -31 6
-3 10 -20 10 -37 0 -18 5 -58 12 -90 10 -46 10 -63 0 -78 -7 -11 -12 -31 -12
-45 0 -31 -38 -93 -62 -101 -10 -3 -18 -10 -18 -15 0 -5 -9 -9 -20 -9 -11 0
-20 -5 -20 -11 0 -18 -213 2 -226 22 -3 5 -13 9 -22 9 -9 0 -33 14 -52 30 -19
16 -38 30 -42 30 -3 0 -14 14 -22 32 -23 46 -20 128 7 180 27 53 137 168 160
168 9 0 17 5 17 10 0 6 9 10 20 10 11 0 20 5 20 10 0 6 9 10 20 10 11 0 20 5
20 10 0 6 25 10 56 10 53 0 59 -2 100 -45z"/>
<path d="M3076 3815 c-9 -13 -16 -31 -16 -39 0 -8 -10 -32 -21 -54 -27 -50
-36 -52 -254 -63 -278 -14 -409 -24 -427 -33 -22 -10 -23 -52 -2 -73 16 -17
13 -17 369 7 208 14 288 20 311 25 36 8 84 64 84 100 0 8 5 15 10 15 6 0 10 9
10 19 0 11 5 23 10 26 14 9 13 68 -2 83 -20 20 -55 14 -72 -13z"/>
<path d="M3578 3832 c-15 -3 -18 -15 -18 -67 0 -35 5 -67 10 -70 6 -3 10 -17
10 -31 0 -13 5 -24 10 -24 6 0 10 -6 10 -14 0 -36 46 -47 270 -67 255 -22 240
-22 255 -3 13 19 13 25 2 60 -8 24 0 23 -304 42 -139 9 -163 17 -163 58 0 72
-38 126 -82 116z"/>
<path d="M2765 3487 c-32 -20 -45 -35 -45 -51 0 -9 -4 -16 -10 -16 -5 0 -10
-20 -10 -45 0 -38 5 -50 39 -84 22 -22 51 -43 65 -47 41 -10 74 4 117 47 31
32 39 47 39 77 0 21 -9 48 -20 62 -11 14 -20 30 -20 36 0 30 -114 45 -155 21z"/>
<path d="M3726 3480 c-10 -10 -25 -31 -32 -46 -16 -31 -19 -100 -4 -109 6 -3
10 -13 10 -21 0 -26 53 -64 89 -64 31 0 91 67 93 104 2 51 -3 91 -13 94 -5 2
-9 10 -9 17 0 40 -100 59 -134 25z"/>
</g>
</svg>
